<?xml version="1.0" encoding="UTF-8" standalone="no"?>
<!-- Created with Inkscape (http://www.inkscape.org/) -->

<svg
   version="1.1"
   id="svg1"
   width="16"
   height="16"
   viewBox="0 0 16 16"
   sodipodi:docname="socket.svg"
   inkscape:version="1.3.2 (091e20ef0f, 2023-11-25, custom)"
   xmlns:inkscape="http://www.inkscape.org/namespaces/inkscape"
   xmlns:sodipodi="http://sodipodi.sourceforge.net/DTD/sodipodi-0.dtd"
   xmlns="http://www.w3.org/2000/svg"
   xmlns:svg="http://www.w3.org/2000/svg">
  <defs
     id="defs1" />
  <sodipodi:namedview
     id="namedview1"
     pagecolor="#ffffff"
     bordercolor="#000000"
     borderopacity="0.25"
     inkscape:showpageshadow="2"
     inkscape:pageopacity="0.0"
     inkscape:pagecheckerboard="0"
     inkscape:deskcolor="#d1d1d1"
     showguides="true"
     inkscape:zoom="40.13672"
     inkscape:cx="9.4551823"
     inkscape:cy="8.2717273"
     inkscape:window-width="1920"
     inkscape:window-height="1008"
     inkscape:window-x="0"
     inkscape:window-y="0"
     inkscape:window-maximized="1"
     inkscape:current-layer="g1" />
  <g
     inkscape:groupmode="layer"
     inkscape:label="Image"
     id="g1">
    <path
       id="path1"
       style="fill:#d6cff8;stroke-width:9.61592"
       d="M 8.003442,0.76198665 A 7.2369259,7.2369259 0 0 0 0.76198665,8.003442 7.2369259,7.2369259 0 0 0 8.003442,15.238014 7.2369259,7.2369259 0 0 0 15.238014,8.003442 7.2369259,7.2369259 0 0 0 8.003442,0.76198665 Z M 4.2588111,6.434001 A 1.5702466,1.5702466 0 0 1 5.8282519,8.003442 1.5702466,1.5702466 0 0 1 4.2588111,9.5728823 1.5702466,1.5702466 0 0 1 2.6893703,8.003442 1.5702466,1.5702466 0 0 1 4.2588111,6.434001 Z m 7.4823789,0 A 1.5702465,1.5702465 0 0 1 13.31063,8.003442 1.5702465,1.5702465 0 0 1 11.74119,9.5728823 1.5702465,1.5702465 0 0 1 10.171748,8.003442 1.5702465,1.5702465 0 0 1 11.74119,6.434001 Z" />
  </g>
</svg>
