# Blender v3.2.2 OBJ File: ''
# www.blender.org
mtllib multiple-materials.mtl
o Cube
v 1.000000 0.058123 -1.000000
v 1.000000 -1.042445 -1.000000
v 1.000000 0.058123 1.000000
v 1.000000 -1.042445 1.000000
v -1.000000 0.058123 -1.000000
v -1.000000 -1.042445 -1.000000
v -1.000000 0.058123 1.000000
v -1.000000 -1.042445 1.000000
vt 0.625000 0.500000
vt 0.875000 0.500000
vt 0.875000 0.750000
vt 0.625000 0.750000
vt 0.375000 0.000000
vt 0.625000 0.000000
vt 0.625000 0.250000
vt 0.375000 0.250000
vt 0.125000 0.500000
vt 0.375000 0.500000
vt 0.375000 0.750000
vt 0.125000 0.750000
vt 0.625000 1.000000
vt 0.375000 1.000000
vn 0.0000 1.0000 0.0000
vn -1.0000 0.0000 0.0000
vn 0.0000 -1.0000 0.0000
vn 1.0000 0.0000 0.0000
vn 0.0000 0.0000 1.0000
vn 0.0000 0.0000 -1.0000
usemtl Blue
s off
f 1/1/1 5/2/1 7/3/1 3/4/1
f 8/5/2 7/6/2 5/7/2 6/8/2
f 6/9/3 2/10/3 4/11/3 8/12/3
f 2/10/4 1/1/4 3/4/4 4/11/4
usemtl Green
f 4/11/5 3/4/5 7/13/5 8/14/5
f 6/8/6 5/7/6 1/1/6 2/10/6
o Cube.001
v 0.600000 0.718464 -0.600000
v 0.600000 0.058123 -0.600000
v 0.600000 0.718464 0.600000
v 0.600000 0.058123 0.600000
v -0.600000 0.718464 -0.600000
v -0.600000 0.058123 -0.600000
v -0.600000 0.718464 0.600000
v -0.600000 0.058123 0.600000
vt 0.625000 0.500000
vt 0.875000 0.500000
vt 0.875000 0.750000
vt 0.625000 0.750000
vt 0.375000 0.000000
vt 0.625000 0.000000
vt 0.625000 0.250000
vt 0.375000 0.250000
vt 0.125000 0.500000
vt 0.375000 0.500000
vt 0.375000 0.750000
vt 0.125000 0.750000
vt 0.625000 1.000000
vt 0.375000 1.000000
vn 0.0000 1.0000 0.0000
vn -1.0000 0.0000 0.0000
vn 0.0000 -1.0000 0.0000
vn 1.0000 0.0000 0.0000
vn 0.0000 0.0000 1.0000
vn 0.0000 0.0000 -1.0000
usemtl Green
s off
f 9/15/7 13/16/7 15/17/7 11/18/7
f 16/19/8 15/20/8 13/21/8 14/22/8
f 14/23/9 10/24/9 12/25/9 16/26/9
f 10/24/10 9/15/10 11/18/10 12/25/10
usemtl Red
f 12/25/11 11/18/11 15/27/11 16/28/11
f 14/22/12 13/21/12 9/15/12 10/24/12
o Cube.002_Cube.003
v 0.300000 1.048634 -0.300000
v 0.300000 0.718464 -0.300000
v 0.300000 1.048634 0.300000
v 0.300000 0.718464 0.300000
v -0.300000 1.048634 -0.300000
v -0.300000 0.718464 -0.300000
v -0.300000 1.048634 0.300000
v -0.300000 0.718464 0.300000
vt 0.625000 0.500000
vt 0.875000 0.500000
vt 0.875000 0.750000
vt 0.625000 0.750000
vt 0.375000 0.000000
vt 0.625000 0.000000
vt 0.625000 0.250000
vt 0.375000 0.250000
vt 0.125000 0.500000
vt 0.375000 0.500000
vt 0.375000 0.750000
vt 0.125000 0.750000
vt 0.625000 1.000000
vt 0.375000 1.000000
vn 0.0000 1.0000 0.0000
vn -1.0000 0.0000 0.0000
vn 0.0000 -1.0000 0.0000
vn 1.0000 0.0000 0.0000
vn 0.0000 0.0000 1.0000
vn 0.0000 0.0000 -1.0000
usemtl Red
s off
f 17/29/13 21/30/13 23/31/13 19/32/13
f 24/33/14 23/34/14 21/35/14 22/36/14
f 22/37/15 18/38/15 20/39/15 24/40/15
f 18/38/16 17/29/16 19/32/16 20/39/16
usemtl Blue
f 20/39/17 19/32/17 23/41/17 24/42/17
f 22/36/18 21/35/18 17/29/18 18/38/18
